<svg width="700" height="700" viewBox="0 0 185 185" xmlns="http://www.w3.org/2000/svg"><style>.B{stroke-linecap:round}.C{stroke-linejoin:round}.D{fill:none}.E{stroke:#000}.F{stroke-width:9.26}.G{stroke-miterlimit:6.19999981}.H{stroke-width:6.085}.I{stroke-width:9.261}.J{stroke-linejoin:bevel}</style><g transform="translate(244 203)"><path class="C D E F G" d="M535-2446c4-3 3-8 0-11l-36-36-117 117-9 56 56-9 117-117z"/><rect transform="rotate(135 643 -551)" x="-601" y="865" width="11" height="67" ry="5"/><path d="M396-2320l-33-33-1 33z"/><rect transform="rotate(135 643 -551)" x="-467" y="866" width="11" height="67" ry="5"/><ellipse cx="-375" cy="-2454" rx="5" ry="5"/><g class="D E C"><g class="F"><path class="B" d="M-375-2436v37"/><path class="G" d="M-459-2481v103h23v37l71-37h74v-103z"/><g class="B"><path d="M-1299-1149h41l69-109h65m0 0l-39-20m39 20l-39 20m39 89l-39-20"/><path d="M-1124-1149l-39 19m-137-128h42l69 109h65"/></g><path class="G" d="M-1264-1679h105v144h-105v-144z"/><g class="B"><path d="M-1270-1693h117m-92 34v116m33-116v116m33-116v116m-50-156h35"/><path class="G" d="M-2350-1575v51l-2 2h-172l-2-2v-51"/><path d="M-2438-1699v150l-44-44m44 44l43-44m352 70v-176m36 176h-71m71-176h-71m1223-709h176m-176-59h176m-176 119h176"/></g></g><g stroke-width="9"><path class="B G" d="M488-2018v124H352v-176h83"/><path d="M486-2016h-51v-50l2-2 53 52-2 2z"/></g></g><g class="C D E" stroke-width="7"><path class="B G" d="M-698-1647v124h-137v-176h84"/><path d="M-700-1645h-51v-50l53 52z"/><path class="B" d="M-805-1584h79m-79-29h79m-79 58h79"/></g><g class="C D E F"><path d="M-875-2070h132l44 44v132h-176v-176z"/><path d="M-823-2070h73v47h-73z"/><path class="B" d="M-773-2054v15"/></g><g class="C D E" stroke-width="8"><path d="M-844-1965h114v71h-114z"/><path class="B" d="M-749-1942h-75m75 25h-75"/></g><g class="D E C"><g class="F"><path class="G" d="M955-2455v22m-104 0v-63h64"/><path d="M954-2454h-39l-1-1v-39l1-2 40 41z"/><path class="B" d="M962-2415h13"/><path d="M852-2367h-37v-65h176v65h-33"/><path class="B" d="M873-2359h60m-60 18h60"/><path d="M850-2381h106v61H850zM-2111-780l176-176m-176 0l176 176"/><ellipse transform="rotate(-45 -1170 -821)" cx="-345" cy="-2283" rx="57" ry="56"/><path class="B" d="M-1501-2320l-79-79"/><g class="G"><path d="M60-2052H25v-18h35zm54 158H-29v-158h143z"/><path d="M88-2039H-2v-7h90z"/></g></g><path class="B I" d="M3-1982h80m-80-29h80m-80 57h80m-81 29h80"/></g><g class="C D E" transform="translate(-1785 -908)"><ellipse class="I" transform="matrix(.5075 -.86165 .8703 .49253 0 0)" cx="704" cy="-259" rx="24" ry="24"/><path class="B F" d="M185-703l-33-19"/><ellipse class="I" transform="matrix(.5075 .86165 .8703 -.49253 0 0)" cx="-520" cy="455" rx="24" ry="24"/><path class="B F" d="M185-703l-33 19m33-19l99-30m-99 30l99 30"/></g><g class="D E H" transform="matrix(1.5227 0 0 1.5212 111 -1656)"><path class="B C" d="M-1691 468v-19m0 116v-66"/><circle class="J" cx="-1691" cy="484" r="16"/></g><g class="D E H" transform="matrix(1.5227 0 0 1.5212 114 -1656)"><path class="B C" d="M-1650 512v-63m0 116v-22"/><circle class="J" cx="-1650" cy="528" r="16"/></g><g class="D E H" transform="matrix(1.5227 0 0 1.5212 69 -1654)"><path class="B C" d="M-1579 481v-33m0 116v-52"/><circle class="J" cx="-1579" cy="496" r="16"/></g><g class="C D E F"><path class="G" d="M-2490-2070h116v176h-116z"/><path class="B" d="M-2440-1982h132l-39 38m39-38l-39-38"/><path class="G" d="M-2111-2070h116v176h-116z"/><g class="B"><path d="M-1929-1982h-132l39 38m-39-38l39-38"/><path class="G" d="M-2716-1575v51l-2 2h-172l-2-2v-51"/><path d="M-2804-1549v-150l-44 44m44-44l43 44m3053 451h176m-553 0H91m-88-88v176"/></g><ellipse transform="rotate(-45 -1640 -112)" cx="-841" cy="-2602" rx="57" ry="56"/><path d="M-2716-2320l-79-79m-78-40h76m-38-38v76"/><ellipse transform="rotate(-45 -1298 -627)" cx="-566" cy="-2456" rx="57" ry="56"/><path class="B" d="M-1955-2320l-79-79m-78-40h76"/></g><g class="D E F"><g class="C"><ellipse transform="rotate(-45 -996 -402)" cx="-598" cy="-2884" rx="57" ry="56"/><path class="B" d="M-2350-2320l-80-79"/><g class="G"><path d="M-2892-918h154v154h-154z"/><path class="B" d="M-2870-918v-22h154v154h-22"/></g><path class="B" d="M80-1545H9c-61 0-61-93 5-93h126m0 0l-39 38m39-38l-39-38m-505 131h72c61 0 61-93-6-93h-125m0 0l39 38m-39-38l39-38m-1117 472l-95 88m95-88l-95-88m-1216 88l95 88m-95-88l95-88m2313 39l40 39m-40-39l40-39"/></g><path d="M-444-1184a68 68 0 1 0 27-132h-69"/><path class="B C" d="M-1528-888h-176l90-76zm-107 100h-47v-100h130v100h-47m-36 0v-49h36v49"/></g><path class="B C D E" d="M-698-1253l-40 39m40-39l-40-39" stroke-width="9"/><path class="D E F" d="M-698-1184a68 68 0 1 1-27-132h69"/><g class="C D E F"><g transform="rotate(45 1253 -860)"><circle cx="-691" cy="-1105" r="88"/><circle cx="-691" cy="-1105" r="60"/></g><path class="B" d="M94-2365l20 20m-124-125l20 20m0 85l-20 20m124-125l-20 20"/></g><g class="C D E F" transform="translate(-291 -1158)"><ellipse transform="rotate(270)" cx="452" cy="694" rx="31" ry="32"/><path class="B" d="M838-452H725m56 26v-26m18 21v-21m18 26v-26"/></g><path class="C D E F" d="M-152-194l24 60 64 4-49 41 16 63-55-35-54 35 16-63-50-41 65-4z"/><g class="C D E"><g class="I" transform="matrix(.5075 -.86165 .8703 .49253 -1 -1534)"><ellipse cx="518" cy="620" rx="24" ry="24"/><ellipse cx="406" cy="685" rx="24" ry="24"/><ellipse cx="525" cy="762" rx="24" ry="24"/></g><path class="B F" d="M826-1662l77 38m-81 67l85-43"/></g><path class="B C D E F" d="M-2438-1251l88 95m-88-96l-88 96m483 0l88-96m-88 96l-87-96"/><g class="D E F B"><path class="C" d="M-1257-872l95-63m-95 63l95 62"/><path d="M-1266-960v176"/></g><path class="B C D E F" d="M-794-881l-96-62m96 62l-96 63"/><g class="D E F"><path class="B" d="M-785-968v175"/><g class="C"><ellipse cx="-406" cy="-927" rx="41" ry="41"/><path d="M-493-793h175m-175 0l-1-6c0-48 40-87 88-87 24 0 46 9 63 26s25 38 25 61M16-908c-5-21-24-35-45-35m-40 34c-23 0-41 19-41 41 0 10 2 22 10 27 43 29 113 29 156 0 8-5 10-17 10-27a41 41 0 0 0-43-41m-90 0c5-20 24-34 45-34m-408-1127h176v176h-176z"/><path d="M-409-2024h26v26h-26zm54 0h26v26h-26zm54 0h26v26h-26zm-108 58h26v25h-26zm54 0h26v25h-26zm54 0h26v25h-26z"/><path d="M-430-2052h176v140h-176z"/><path class="G" d="M-1696-2070h116v176h-116z"/><path class="B" d="M-1762-1982h132l-39 38m39-38l-39-38"/><path class="G" d="M-1291-2070h116v176h-116z"/><path class="B" d="M-1225-1982h-132l39 38m-39-38l39-38M366-855h100m-100-59h100M366-796h100"/></g></g><circle cx="347" cy="-914" r="5"/><circle cx="347" cy="-855" r="5"/><circle cx="347" cy="-796" r="5"/><g class="D E F"><g class="C"><path d="M290-855h38m-38-59h38m-38 118h38m-3122-1235l-22-23h-35m-33 23l21-23h36m111 144h-176v-121h176v121zm3460-125h176v106H744z"/><path d="M920-2035H744l88 78zm-116 53l-60 53h176l-60-53-28 25z"/></g><path d="M-1186-2342v-133h-42v155h61v-176h-83v154"/><g class="C"><path class="B" d="M678-880c23 0 47 5 69 14m-157-33a220 220 0 0 1 175 0"/><ellipse cx="848" cy="-805" rx="19" ry="19"/></g></g></g></svg>