<svg width="500" height="500" xmlns="http://www.w3.org/2000/svg"><path fill="none" d="M-1-1h582v402H-1z"/><g><path stroke-width="10" stroke-miterlimit="3" stroke-linejoin="round" stroke-linecap="round" stroke="#000" fill="none" d="M44 91h412M456 91c10 0 19 9 19 19M475 110v324M475 434c0 11-9 19-19 19M456 453H44M44 453c-10 0-19-8-19-19M25 434V110M25 110c0-10 9-19 19-19M115 47v78M115 166c10 0 19-9 19-19 0-11-9-20-19-20a19 19 0 0 0 0 39M385 47v80M385 166a19 19 0 0 0 0-39 19 19 0 0 0 0 39M75 213h350M86 261h17M103 261c6 0 10 5 10 11M113 272v17M113 289c0 6-4 11-10 11M103 300H86M86 300c-6 0-11-5-11-11M75 289v-17M75 272c0-6 5-11 11-11M287 261h17M304 261c6 0 11 5 11 11M315 272v17M315 289c0 6-5 11-11 11M304 300h-17M287 300c-6 0-10-5-10-11M277 289v-17M277 272c0-6 4-11 10-11M388 261h17M405 261c6 0 11 5 11 11M416 272v17M416 289c0 6-5 11-11 11M405 300h-17M388 300c-6 0-11-5-11-11M377 289v-17M377 272c0-6 5-11 11-11M86 360h17M103 360c6 0 10 5 10 10M113 370v17M113 387c0 6-4 11-10 11M103 398H86M86 398c-6 0-11-5-11-11M75 387v-17M75 370c0-5 5-10 11-10M187 360h17M204 360c5 0 10 5 10 10M214 370v17M214 387c0 6-5 11-10 11M204 398h-17M187 398c-6 0-11-5-11-11M176 387v-17M176 370c0-5 5-10 11-10M287 360h17M304 360c6 0 11 5 11 10M315 370v17M315 387c0 6-5 11-11 11M304 398h-17M287 398c-6 0-10-5-10-11M277 387v-17M277 370c0-5 4-10 10-10M180 278l14 13M220 262l-26 29M384 376l14 13M424 361l-26 28"/></g></svg>