<svg height="32" width="32" xmlns="http://www.w3.org/2000/svg"><g fill="none" fill-rule="evenodd"><path d="M7 23V13c-1 2-3 2-3 2H3l-1-1 1-1h1l2-2 2-1V9h2v14l-1 2-1-1-1-1" fill="#F42F42"/><path d="M7 23V13c-1 2-3 2-3 2H3l-1-1 1-1h1l2-2 2-1V9h2v14l-1 2-1-1-1-1h0z" stroke="#330910"/><path d="M4 13l3-1" stroke="#FFF" stroke-dasharray="1,2,6,2,3" stroke-linecap="round" stroke-linejoin="round"/><path d="M14 22h7v2l-1 1h-8l-2-1v-1-1l1-1a62 62 0 0 1 6-5l1-2v-1a2 2 0 0 0-1-2h-1l-3 1v1l-1 1h-1-1v-1-2l1-1 2-1 3-1 2 1a4 4 0 0 1 3 2v2l-1 3-1 1a74 74 0 0 1-5 4v1" fill="#2FBBF4"/><path d="M14 22h7v2l-1 1h-8l-2-1v-1-1l1-1a62 62 0 0 1 6-5l1-2v-1a2 2 0 0 0-1-2h-1l-3 1v1l-1 1h-1-1v-1-2l1-1 2-1 3-1 2 1a4 4 0 0 1 3 2v2l-1 3-1 1a74 74 0 0 1-5 4v1h0z" stroke="#092933" stroke-linejoin="round"/><path d="M12 11l1-1 3-1" stroke="#FFF" stroke-dasharray="1,2,6,2,3" stroke-linecap="round" stroke-linejoin="round"/><path d="M24 15h2v-1l1-1a2 2 0 0 0-2-2h-2l-1 1v1h-1-1v-1-1l1-1 2-1a7 7 0 0 1 4 0l1 1a4 4 0 0 1 2 2l-1 2v1 2a4 4 0 0 1 1 3 5 5 0 0 1-1 3l-2 1a6 6 0 0 1-5 0 5 5 0 0 1-2-2l-1-2 1-1h2l1 2v1l2 1a3 3 0 0 0 3-3l-1-2-2-1h-2l-1-1 1-1h1" fill="#2FF489"/><path d="M24 15h2v-1l1-1a2 2 0 0 0-2-2h-2l-1 1h0v1h-1-1v-1-1l1-1 2-1a7 7 0 0 1 4 0l1 1a4 4 0 0 1 2 2l-1 2v1 2a4 4 0 0 1 1 3 5 5 0 0 1-1 3l-2 1a6 6 0 0 1-5 0 5 5 0 0 1-2-2l-1-2 1-1h1s0 0 0 0h1l1 2v1l2 1a3 3 0 0 0 3-3l-1-2-2-1h-1s0 0 0 0h-1l-1-1 1-1h1z" stroke="#09331B"/><path d="M22 10h1l2-1" stroke="#FFF" stroke-dasharray="1,2,6,2,3" stroke-linecap="round" stroke-linejoin="round"/></g></svg>